<svg xmlns="http://www.w3.org/2000/svg" width="400" height="158.9" viewBox="0 0 400 158.9"><g fill-rule="evenodd"><path fill="#5dcaa5" d="m41.3 16.5-.9.2-.7.1-.4.2q-.5 0-.5.2l-.5.1-.6.2q0 .2-.2 0c-.2 0-1.3.5-1.3.7l-.8.5a18 18 0 0 0-4.6 4.7l-.5 1-.5 1.1-.1.4q-.2.1-.1.4v.4q-.3.2-.3.8l-.1.8c-.1 0-.2 1-.2 2.1q0 2 .2 2.2l.1.8.2.9q.2 0 .1.3a14 14 0 0 0 2 3.6q.3 1 1.5 2 1.6 1.6 2 1.6l.4.3 1 .6 1.4.6 1 .4.5.1.8.2q.6 0 .7.2l.9.1q.6 0 .7.2 0 .1.3.2c1.3 0 6.2 3.7 6.9 5.2l.8 1.3a17 17 0 0 1 2.3 5.5q.2 0 .2.5 0 .7.2.7l.1 1.1.2 1 .2 1.4-.2 1.4-.2 1-.1 1.1-.2.5q0 .4-.2.4l-.1.4q0 .5-.2.5l-.2.5-.5 1.4q-.6 1-.6 1.4l-.2.4-.2.7-.1.6-.2 2.6a9 9 0 0 0 .2 2.7l.1.6.2.7.2.3a14 14 0 0 0 4.7 6.6q.2 0 .4.2a16 16 0 0 0 4.2 2l.5.1.8.2 1 .1.5.2q.5 0 .8.2l3 1.3q.3 0 .8.7l.9.6c.2 0 1.3 1.1 1.9 2l1.6 2.3.4.6q.3.1.3.4l.2.4c.3.2 1.3 2.1 1.3 2.4l.3.8.4 1 .3.6q.3.5.3 1l.2.6v.6q0 .5.2.7a28 28 0 0 1-.4 8.5l-.8 2-.2.6-.1.5c-.4.3-.7 4.8-.4 5l.2 1q0 .7.2.7l.1.6.2.7.2.3c0 .4.8 2 1 2l.1.3.4.5.3.5.3.5.4.5c0 .2 1.5 1.8 1.7 1.8l.7.5.6.5q.2 0 .5.2a14 14 0 0 0 3.5 1.8l.4.1q2.4.2 2.6.4c.3.2 3.4.2 3.5 0l1-.2q.7 0 .9-.2h.4c.3 0 1.3-.3 1.3-.5l.4-.1 1.2-.5 1.2-.7q.3-.1.6-.4l.4-.3a21 21 0 0 0 3.9-4.2l.5-.8.8-1.6.4-1.2.1-.8.2-.6c.1 0 .2-1.1.2-2.5q0-2.3-.2-2.5l-.2-.8-.1-.7-.2-.5-.1-.5-.2-.2q-.1-1.1-.4-1.2l-.1-.5-.2-.6-.2-1-.2-1a21 21 0 0 1 .2-5c0-1 .4-2.4.6-2.5l.1-.6.1-.6.3-.5a21 21 0 0 1 2.6-5.2q0-.3.3-.5l.4-.4a27 27 0 0 1 4.6-4.5 12 12 0 0 1 3.8-2l.9-.1.9-.2q0-.1.9-.2c.8-.1 3-1.1 3.4-1.6l.4-.2.3-.2q0-.3.3-.3a15 15 0 0 0 4.8-6.2q0-.3.2-.3l.1-.5.1-.7.1-.8q0-.7.2-.7c.2-.2.2-2.7 0-2.9l-.2-.8-.1-.8-.1-.6-.1-.5-.2-.4c0-.3-.7-1.7-.9-1.8l-.1-.4q0-.4-.2-.5l-.1-.5-.1-.5q-.3 0-.4-1.8l-.2-1.2c-.2-.2-.2-2.8 0-2.8q.2 0 .1-1 0-1 .2-1.1t.2-.6v-.5l.2-.5.1-.5.2-.5.3-.8.4-.7.5-1.2 1.3-2.2q.3-.2.3-.5s.4-.6 1-1l.9-1.1c0-.3.8-1.1 1-1.1q.3 0 .6-.4l.6-.4.5-.4.3-.3 1.3-.6c.7-.3 1.8-.6 2.5-.7a7 7 0 0 0 2.4-.7l.6-.2h.4q.1-.2.2-.2a5 5 0 0 0 1.8-1q0-.3.3-.3l.6-.3q.2-.3.5-.3A17 17 0 0 0 149 36c0-.3.4-1.2.5-1.2q.2 0 .2-.5l.1-.7c.3-.4.7-4.5.4-4.8l-.2-1q0-.7-.2-.9l-.1-.6-.2-.5q-.1 0-.2-.3c0-.3-1.1-2.7-1.3-2.7q-.2 0-.2-.3t-.5-.7l-.5-.5c0-.3-1.3-1.6-1.5-1.6q-.3 0-.3-.2a12 12 0 0 0-4.5-2.5q-.5 0-.6-.2l-1-.1q-.8 0-.9-.2t-1.4-.2-1.4.2q0 .1-1 .2l-1 .1-.5.2q-.5 0-.6.2l-.4.1c-.4 0-2.5 1-2.6 1.3l-.4.2q-.4 0-.6.4l-.5.5c-.3 0-2.3 2-2.3 2.3l-.3.3-1.1 1.8q-.7 1.6-1 1.7v.6l-.2.7v.9q0 .8-.2.9c-.2.2-.2 3 0 3.2q.2.1.1.8v.9q.3 0 .2.4c0 .2 1.5 3.3 1.9 3.7v.5l.1.3.2.5q0 .5.2.5l.1.8.2.8a20 20 0 0 1-.3 6.7l-.2.4q0 .4-.2.5v.5l-.1.4-.2.4-.4 1-1 1.7c-.7 1.6-.9 1.8-1.3 2.2l-.5.6a17 17 0 0 1-4 3.8l-3 1.3-.8.2q-.4 0-.6.2l-.7.1-.8.2-.3.1q-.3 0-.9.2l-.9.4q-.4 0-.4.2-.1.3-.8.6l-1 .7-.5.3a11 11 0 0 0-2.6 2.7 13 13 0 0 0-2.2 5l-.1 2.8.1 2.8.2.4q0 .5.2.5l.2 1 .2.8c.2 0 .6.9.6 1.4l.1.5.2 1q0 .7.2.8l.1 2.3-.1 2.3-.2.8q0 .7-.2.8l-.1.7-.2.7-.2.5-.1.6-.2.3c0 .2-.3 1.2-.8 2l-1.3 2.3-.2.4-.4.5-.3.5a28 28 0 0 1-4.7 4.4l-1 .5q-.8.6-2 .6l-1 .3c0 .2-3 .2-3 0l-.9-.2-1-.2-.6-.3a3 3 0 0 1-1.5-.8l-.3-.2a15 15 0 0 1-4.3-4.3l-.4-.5q-.2-.2-.3-.5l-.2-.4a9 9 0 0 1-1.3-2.4l-.3-.8-.4-.9-.1-.5-.4-.7-.1-.8-.2-.6q0-.1 0-.8l-.1-.9a19 19 0 0 1 .8-8.7l.1-.5q0-.3.2-.4c.2 0 .5-.8.5-1.3q0-.5.2-.6c.2-.1.2-4.7 0-4.8l-.2-.6c0-.5-.3-1.3-.5-1.3l-.2-.4-.5-1.2-.7-1.4a20 20 0 0 0-4-4 11 11 0 0 0-3.8-1.7l-.7-.2-.7-.1-.6-.2q-.4 0-.5-.2l-.5-.1c-.3 0-2-1-2.5-1.3l-.4-.2a27 27 0 0 1-4.6-5 14 14 0 0 1-2-4l-.3-.9q0-.2-.2-.4l-.1-.7q0-.5-.2-.5l-.2-.8-.1-.8c-.1 0-.2-1-.2-2.1q0-1.8.2-2l.1-1.2.2-1 .2-.6.1-.4q.2 0 .2-.3l1.3-3 .2-.7q0-.2.2-.3l.1-.6.2-.6.2-1.2q0-1 .2-1.5.2-.3 0-.4-.3 0-.2-1.4l-.2-1.4-.2-.5-.1-.5-.2-.4q0-.4-.3-.8-.4-.5-.4-1-.1-.6-.5-1-.3-.2-.3-.4T54 22l-.5-.7c0-.2-1.5-1.7-1.8-1.7l-.5-.4q-.4-.5-.6-.5t-.4-.2c-.3-.3-1.7-1-2.4-1.2q-.4 0-.6-.3l-.5-.1q-.3 0-.5-.2l-.9-.1-.9-.2-1.6-.2q-1.3 0-1.5.2m161 40.1h.7-.8m2 .7.8.8v1.5q0 1.4.2 1.9V58l-.8-.7-.8-.7zm112.5-.5q-.4.2 0 .2.3 0 .5-.2.4-.3-.5 0m-91.6 2.6-.4.5zq.7-.6.5-.6zm3.5-.5.5.5.6.5-.5-.5zm92.8 1.7q0 .6.1.3v-.7zm-121.9 3.6v2zm114.6-2.6q0 .3.2.5v-.4q-.1-1-.2-.1m6 1.5-.3.5c.4-.2 1.3-1.3 1.1-1.3zm-96 .5q0 .6.2.3v-.7zM205 65.4v.5-1zm-5.4 5.2v1zm-17.5.3.6.4.4.2c0-.2-1-.7-1-.6m115.1 0 .6.4.5.2c-.1-.2-1-.7-1-.6m-27.8.7q-.3.6-.2 1l.4-1q.4-1.2-.2 0m-17.7 1q0 1-.4 1.6-.3.5-.1.3.6-.5.6-2l-.1-1zm68.7 16.3v8.6zm53.3-16.2v.3-.7zm-189.7-.4.5.6.6.5-.5-.6zM315 89v8.5zm-45.5-15.5q0 .5.3.7v-.4q-.5-1.2-.3-.3m30.5-.1.6.6q.6.5 0-.2-.9-1.1-.6-.4m-49.7 1.6q-.5.2-.2.3l.6-.3q.6-.5-.4 0m20.8.3.6.1q.3 0 0-.1l-.6-.2q-.3 0 0 .2m-23.7 0c.4.1 1.2.1 1.6 0h-1.6m42.5 0h1.9-1.9m-137.9.3h.5q1.4 0 .3-.2-.6 0-.8.2m34.4-.1.2.6q.3.5.3.3zm158 .1h.6-.6m-164 1.3.8.6-.6-.6-.7-.7zm115.2 0 .9.8zl-.8-.8zm6.2-.1.1.6.1-.5-.2-.6zm33.8.5v.4q.2-.1.2-.5t-.2.1m-33.5 1q0 .7.2.8v-.5q0-1.4-.2-.3m-158.6.3v.3-.7zm191.9 10.3V94zm-186.5.1v5zm191.8-.1v4.8zm-197.3-5.9q.2 4.1.2.7v-2.3q-.2 0-.2 1.6m118.7 6-.9 1zq1.2-1.1.9-1zm20.4 2.7H297v7.1-7.2zh-14.4zm-23.1 5.4v1.6zm-116-.6v.5c.2 0 .2-1 0-1zM265 97.5v.6V97zm-59.7-.2v.3-.6zm.2 1.1q.1.3.5.7.5.5 0 0l-.3-.6-.1-.4zm-62 .6v.4q.1-.4 0-.8zm158.7-.2v.8q0 1 .1-.2zm-77.6.8q.1.5.5 1 .2.6.2.3-1-2.7-.7-1.3m-17.7 1 1 .9-.9-1-1-.8zm-6.5 0q0 .4.3.7l.1.1-.2-.6q-.2-.4-.2-.1m-20.2.3-.8.6q-.2.2.2 0l.8-.6q.6-.6-.2 0m162 .2c.3.4 1.2.9 1.3.7l-.9-.5zm-47.6.3-.3.3.6-.3q.7-.6-.3 0m-143.7.2c.1.2.8.5.8.4l-.5-.3q-.6-.3-.3 0m1.8.6h24-24m58.4 0c.2 0 1.6.2 1.4 0l-.9-.1zm36.1.8.6.6-.4-.6-.7-.6zm-20.7.2 1 1.3q.8.7 0-.3zm111.6 1.5 1.4 1.4-1.2-1.4-1.4-1.3zm-76.5-.3 1.2 1.3q.6.2-.1-.3zm-77.6.5-.8 1zl.8-.8zm-37.8.2.7.6-.6-.6-.7-.7zm152.8 0-.6.7zl.6-.8zm20.6 1.5c-.5.9-2.6 1.3-3.5.7l-.4-.3.4.4c.4.4 2 .5 2.6.1.5-.3 1.3-1 1.2-1.2zm-106.2.4-.4.4c.3-.1 1.2-1 1-1zm-33.6.2q-.7.3-.1.2.3 0 .7-.2zm28 0 .7.2q.8 0-.3-.2zm24.3 0 .8.3h.3c-.5-.3-1.4-.5-1.1-.3m-81.7.2q1 .3.6 0l-.7-.1q-.3 0 .1.1m192 0h.5l-.3-.1zm-132.1.4h1.7-1.7m140.4 0"/><path fill="#e1f5ee" d="M201.1 57q-.4.1-.8.7l-.5.5v39.6l.5 1.5c1.8 5.2 6 8.4 11.3 8.4 1.5 0 1.5 0 2.2-.6 1.8-1.6.9-4.4-1.5-4.7-1.2 0-2.6-.3-3.4-.6-.6-.2-2.6-1.8-2.6-2.2l-.3-.5-.4-.7a1787 1787 0 0 1-.5-38.5l-.1-1.8-.7-.7q-1.4-1.2-3.2-.5m116 0q-3.2.9-2.7 4c.3 3.1 3.8 4.4 6 2.2 1.7-1.7 1.5-4.6-.4-5.6-1.5-.8-2.1-.9-3-.6m-90.7 1.8q-1 .6-1.6 1.6c-.2.4-.2 3.1-.1 19 0 18.7 0 19 .6 20.7l.8 2 .4.5q1.7 2.8 4.5 4.1c2.2 1 2.7 1 9.5 1l6.6-.1c1.8-1 2-3 .5-4.5l-.6-.5h-5.8c-3.3 0-6.1-.2-6.5-.3q-3-.7-4.3-4c-.3-1-.5-22.6-.2-22.8l10-.1c9.4 0 9.7 0 10.4-.4 1.5-.7 1.9-2.8.7-4.3-.6-.7-.8-.7-11.1-.8h-10l-.1-4.6c0-2.6-.2-4.8-.2-5-.3-.5-1.2-1.4-1.6-1.4l-.4-.1c-.2-.3-1.1-.2-1.6 0M151.4 70c-2 .5-6 3.2-6 4q0 .3-.3.7c-.4.5-1 2.3-1.2 3.5a21 21 0 0 0 0 5l-.1 2.3q-.3.2 0 .6v.6a60 60 0 0 0-.1 10v1l.2 1.5a10 10 0 0 0 5.2 7.4c1.8 1 2 1 16.5 1h13.4l1.5-.4q5.3-1.6 6.9-7.4c.3-1.2.3-20.8 0-22a13 13 0 0 0-1.5-3.6c-.7-1.5-3-3.2-5.2-4-1.3-.5-27.5-.7-29.3-.2M271 70c-1.5.7-1.8 3.6-.4 4.5 1 .7 1.4.8 12.6.7h10.6l.9.4c1 .5 2.2 1.8 2.2 2.3l.2.4q.2.2.1 3.8v3.5l-14.6.1c-16.3.1-15 0-17.7 1.3-1.2.6-3.3 2.4-3.3 2.8l-.3.5c-2 1.7-2.2 9-.4 12.3.7 1.4 2.4 3.2 3.7 3.9 2 1 1.7 1 16.5 1h13.4l1.3-.3c2.1-.7 3.2-1.5 5-3.7a8 8 0 0 0 1.5-3 198 198 0 0 0 .1-22.5l-.1-.8-.2-.6c0-.5-.8-2.2-1.4-2.9l-1-1.1c-.5-.8-2.3-1.9-4-2.5-1.3-.5-23.6-.5-24.7 0m45.6 0c-1.3.6-1.2-.7-1.3 18.3l.1 17.5c.6 2 3.8 2.3 4.9.5.3-.6.3-1 .3-17.7v-17l-.4-.7c-.6-1.2-2.3-1.6-3.6-1m26.8 0c-3.3.8-7.3 4.5-7.3 7q0 .3-.2.5c-.2.2-.1 22 .1 22.8.8 3.2 4 6.3 7 7 1.7.3 29 .3 29.6 0 1.6-1 1.8-2.8.4-4.4l-.5-.5H359c-7.6 0-13.7 0-14-.2l-1-.3q-1.9-.4-2.9-3.5c-.2-.9-.2-19 0-19.6.6-1.3.7-1.6 1.3-2.2l1.4-1 .8-.4h13.3c15 0 14.6 0 15.5-1.1 1-1.3.6-3.3-.8-4-.8-.5-27.5-.5-29.2-.1m-163.8 5.6c2.5 1.3 2.5 1.2 2.5 13 0 15 1.6 13.6-16.7 13.7a212 212 0 0 1-13.3-.3c-1-.2-2.2-1.5-2.7-3.1-.5-1.3-.4-19.3 0-20.5q.6-1.8 2-2.5l1-.6h26.4zM297 94.8c.1 4.8-.5 6.2-2.7 7.1-1.2.5-26 .5-26.9 0-3-1.4-3.6-6.8-1-9.3 1.3-1.3.3-1.3 16.3-1.2h14.3z"/><path fill="#040404" d="M0 79.4v79.4h400V0H0zm44.4-62.9 1 .2.9.1q0 .2.5.2l.4.1.6.3c.7.2 2.1.9 2.4 1.2l.4.2.6.4.5.5c.3 0 1.8 1.5 1.8 1.7l.5.7q.5.3.5.7l.3.4.5 1q0 .5.4 1 .3.4.3.8 0 .3.2.4l.1.5.2.5.2 1.4q0 1.4.2 1.4t0 .4l-.2 1.5q0 1-.2 1.1l-.2.7-.1.6-.2.3q0 .4-.2.7l-1.5 3.3-.1.4q0 .5-.2.5l-.2 1.1-.1 1.1c-.1 0-.2 1-.2 2.1q0 1.8.2 2l.1 1 .2.7q.1 0 .2.5l.1.7.2.4.3 1 .3.6a14 14 0 0 0 1.9 3.7l.3.3.2.3a27 27 0 0 0 4.3 4.2c.4.4 2.2 1.3 2.5 1.3l.5.1.5.2q.5 0 .6.2l.7.1.7.2q0 .2.4.1a11 11 0 0 1 3.9 1.9c.3 0 3.1 3 3.5 3.7l1.2 2.6q0 .3.2.4c.2 0 .5.8.5 1.3q0 .5.2.6c.2.1.2 4.7 0 4.8l-.2.6c0 .5-.3 1.3-.5 1.3l-.2.4-.1.5-.2.5q0 .5-.2.5l-.1.5q0 .5-.2.5v.7q0 .5-.2.7a19 19 0 0 0 .1 6.2l.1.8.2.6.1.8.4.7.1.5.4.9.3.8c0 .3 1 2.2 1.3 2.4l.2.4q0 .3.3.5l.4.5q0 .3.4.6l.4.6a15 15 0 0 0 3.8 3.3 3 3 0 0 0 1.5.8l.6.3 1 .2q.7 0 .8.2c.2.2 3.1.2 3.1 0l1-.3q1.2 0 2-.6l1-.5.5-.3q.2-.3.4-.3a28 28 0 0 0 4.5-4.8q0-.2.2-.4l.7-1 .6-1.3c.5-.8.9-1.8.8-2q0 0 .2-.3l.1-.6.2-.5.2-.7.1-.7.2-.8q0-.7.2-.8l.1-2.3-.1-2.2-.2-1q0-.7-.2-.9l-.1-.5c0-.5-.4-1.4-.6-1.4l-.2-.8-.2-1q-.2 0-.2-.5 0-.3-.2-.4l-.1-2.8.1-2.8.2-.6q0-.5.2-.7v-.3a13 13 0 0 1 2.1-3.9 11 11 0 0 1 2.8-2.5l1-.7.8-.6.4-.2 1-.4q.5-.2.8-.2h.3q.1-.3.8-.3l.7-.1.6-.2q.5 0 .8-.2l3-1.3q.2 0 .6-.5l.7-.5a17 17 0 0 0 4.6-5.6l1.3-2.7q0-.3.2-.4v-.4l.1-.5.2-.5q0-.4.2-.4l.1-.7.2-.9a20 20 0 0 0-.3-6.6l-.2-.5q0-.5-.2-.6v-.3l-.1-.5a24 24 0 0 1-2-4.1v-.9q0-.6-.2-.8c-.2-.2-.2-3 0-3.2q.2 0 .1-1v-.8q.3-.1.2-.7t.2-.6l.9-1.7 1.1-1.8q.3 0 .3-.3c0-.4 2-2.3 2.3-2.3l.5-.4q.2-.5.6-.5.2 0 .4-.2c0-.3 2.2-1.4 2.6-1.3l.4-.1.6-.2q.4 0 .6-.2l1-.1q.8 0 .9-.2t1.4-.2 1.4.2q0 .1 1 .2l1 .1q0 .2.5.2l.6.1.2.2a12 12 0 0 1 4 2.4c.2 0 1.5 1.3 1.5 1.6l.5.5q.5.3.5.7t.2.3c.2 0 1.3 2.4 1.3 2.7q0 .3.2.3l.2.5.1.6.2 1q0 .6.2.9a14 14 0 0 1-.5 5.5q0 .5-.2.5c-.1 0-.5.9-.5 1.2l-.3.6q-.3.3-.4.7a17 17 0 0 1-4.6 4.5l-.3.3a5 5 0 0 1-1.8 1l-.2.1-.4.1-.6.2a7 7 0 0 1-2.4.7c-.7 0-1.8.4-2.5.7l-1.3.6-.3.3-.5.4-.6.4-.5.4c-.3 0-1.1.8-1.1 1q0 .4-1 1.2c-.5.4-.9 1-.9 1q0 .3-.3.5l-.6.8-1.2 2.6-.4.7-.3.8q0 .3-.2.5l-.1.5-.2.5v.5q0 .4-.2.6-.2 0-.2 1.1v1c-.3 0-.3 2.6-.1 2.8l.2 1.1q.1 1.8.4 2v.4l.2.5.2.5.1.4c.2.1.9 1.5.9 1.8q0 .3.2.4l.1.5v.6l.2.8q0 .7.2.8c.2.2.2 2.7 0 2.9q-.2 0-.2.7v.8q-.2.3-.2.7l-.1.5q-.2 0-.2.3c0 .4-.8 2-1 2.2q-.3.2-.3.4t-.3.4l-.2.3a15 15 0 0 1-3.3 3.2l-.3.2-.4.2c-.4.5-2.6 1.5-3.4 1.6q-.7 0-.9.2l-.9.2-1 .1-.3.2c-.4 0-2.9 1.3-3.4 1.8l-.6.4a27 27 0 0 0-4.8 5.3 21 21 0 0 0-3 6.6c-.2 0-.5 1.6-.6 2.5l-.2.7a21 21 0 0 0 .4 6.3l.2.6.1.5q.2 0 .4 1.2l.2.2.1.5q0 .3.2.5l.1.7.2.8q.2.1.2 2.5 0 2.2-.2 2.5l-.2.6-.1.8-.4 1.2-.8 1.6-.5.8-.3.5-.4.5a21 21 0 0 1-4.2 4l-1.2.6-1.2.5h-.4c0 .3-1 .7-1.3.6H93l-1 .2q-.7 0-.8.2c-.2.2-3.3.2-3.6 0q-.2-.2-2.6-.4l-.4-.1-.4-.2a14 14 0 0 1-3.6-1.8l-.6-.5-.7-.5c-.2 0-1.7-1.6-1.7-1.8l-.4-.5-.3-.5-.3-.5-.4-.5-.1-.2c-.2 0-1-1.7-1-2l-.2-.5-.2-.6-.1-.6q-.2 0-.2-.7t-.2-1a14 14 0 0 1 .7-6l.8-2.1.2-.5v-.5q0-.4.2-.5a28 28 0 0 0-.4-9l-.3-.9q-.3-.3-.3-.7l-.4-.8-.3-.9c0-.3-1-2.2-1.3-2.4l-.2-.4-.3-.4-.4-.6q-.3-.8-1-1.5l-.6-.9a8 8 0 0 0-2-1.9l-.8-.6q-.6-.7-.8-.7l-3-1.3-.8-.2q-.4 0-.5-.2l-1-.1-.8-.2q0-.1-.5-.2H60q0-.2-.3-.2a16 16 0 0 1-3.7-2 17 17 0 0 1-3.1-3.3 14 14 0 0 1-1.8-3.5l-.2-.7-.1-.6a9 9 0 0 1-.2-2.7l.2-2.6.1-.6.2-.7.2-.4q0-.3.6-1.4l.5-1.4.2-.5q.1 0 .2-.5l.1-.4q.2 0 .2-.4 0-.3.2-.5l.1-1q0-1 .2-1.1l.2-1.4q0-1.2-.2-1.3l-.2-1.1-.1-1-.2-.8q0-.5-.2-.5l-.1-.5q0-.6-.4-1.1l-.2-.7-1.6-3.2-.8-1.3c-.2-.4-3.4-3.5-4.1-4a10 10 0 0 0-2.8-1.2q-.3 0-.3-.2 0-.1-.7-.2l-.9-.1-.7-.2q-.6 0-.8-.2l-.5-.1-1-.4-1.4-.6-1-.6-.4-.3q-.4 0-2-1.6a5 5 0 0 1-1.6-2q0-.4-.3-.4a14 14 0 0 1-1.9-4.4l-.1-.8q-.2-.2-.2-2.2 0-1.9.2-2.1l.1-.8.2-.8q.2 0 0-.4 0-.2.2-.4l.1-.4.5-1.2.5-1 .4-.4q.3-.2.3-.5a18 18 0 0 1 4.7-4.2c0-.2 1-.8 1.3-.6l.2-.1.5-.2.5-.1.6-.2q.4 0 .4-.2l.7-.1.9-.2q.2-.1 1.5-.2zm160 40.9.8.8v17.4c.1 23 .1 22 .8 23.2l.3.6c.3.6 2 2 2.5 2.3q.7 0 1 .3l1.6.3 1.7.2c1 .4 2.2 2.6 1.8 3l-.2.5c0 1.4-2.8 2.3-5.3 1.7-1.5-.5-2-.6-2.5-.9l-.8-.3c-1.1 0-4.9-4-5.5-6-.8-2.4-.7-1.4-.8-22.4V58.3l.3-.6c1-1.4 3-1.6 4.4-.3m115.3-.1c3.2 1.6 1.8 7-1.9 7-4 0-5-6-1.3-7.4q1.4-.5 3.2.4m-91 1.7c1.1.8 1.1.7 1.2 5.8q0 4.6.2 4.8c.1.2 2.2.2 10 .2 9.8 0 10 0 10.5.4 1.7 1 1.8 3.7.2 4.7l-.7.3-10 .1h-10l-.1.4c-.2.9-.1 21.2.1 22q.8 2.8 3.2 4l1 .5 6.3.1 6.3.1.7.7c1.3 1.5 1.1 3.4-.5 4.4-.9.5-13 .5-14.4 0-3-1.2-6.5-3.8-6.5-5l-.3-.4-.3-.5-.4-1c-.8-1.5-.8-1.7-.8-21.5 0-16.5 0-18.6.2-19q.5-.8 1.4-1.4c.5-.3 2.2-.1 2.7.3m-48.4 11.2c2.6.9 5.6 3.1 5.6 4.2l.3.6c1.1 1.5 1.1 1.2 1.2 13.2s0 12-1 13.8a10 10 0 0 1-7 5.6c-1.1.3-27.1.3-28 0-1.8-.4-3.8-1.4-4.7-2.3a16 16 0 0 1-2.6-4c-.5-.6-.6-2.4-.6-12.6 0-11.9 0-11.5 1.7-14.6q1.5-2.5 6-4c1-.4 28-.3 29.1 0m115.2 0q4.1 1.5 6 5c1 2.4 1 2.9 1 14.6 0 11.1 0 10.6-1 12.6-.7 1.4-2 3-3 3.7-2.8 1.8-1.8 1.7-17.3 1.8-13.5 0-13.5 0-14.7-.3-4.8-1.5-7-4.6-7-10.4q-.4-8.8 7.5-11c1.1-.3 1.5-.3 15.4-.3 10.9 0 14.3 0 14.5-.2.3-.3.2-6.1 0-7.2q-.7-1.6-2.4-2.6c-.7-.4-.8-.4-12-.5-8.2 0-11.4-.1-11.7-.2-1.8-1.1-2-3.7-.2-4.9l.5-.4H283a54 54 0 0 1 12.7.4m23.7 0q.5.2.9.8l.4.6v17l-.1 17.5c-1 2.3-4.1 2.4-5.2.1-.5-1.1-.5-33.3 0-34.8s2.5-2.1 4-1.3m53.4.1a3 3 0 0 1 0 4.8c-.4.2-1.5.3-14.4.3l-13.9.1-.9.5C341 77.2 341 77.4 341 89V99l.5.8q.6 1.4 2 2.1l1 .5h13.9c13.8.1 14 .1 14.4.5 1.6 1.2 1.5 3.7-.2 4.7l-.7.3h-14q-14 0-14.8-.3c-3.5-.7-6.6-4-7.4-7.5-.3-1.7-.3-21 0-22.5a10 10 0 0 1 6-7l1.6-.5 14.6-.2H372zm-220 5.3c-1.5.2-3 1.6-3.4 3.2-.4 1.4-.1 20.3.3 21q.8 1.6 2 2.1l.8.5h26l1-.5a4 4 0 0 0 2.2-2.3l.4-1v-9.9c0-11.6 0-11.5-2.7-12.9-.6-.3-24.5-.5-26.6-.2m115 16.3c-.7.3-2 1.5-2.3 2.3a11 11 0 0 0 .2 5.9c1.2 2.3 1.2 2.4 15.8 2.3h12l1.1-.6c2.2-1 2.5-1.9 2.5-6.6v-3.6h-14.4c-12.1 0-14.4 0-14.9.3"/></g></svg>