<svg version="1.2" xmlns="http://www.w3.org/2000/svg" viewBox="0 0 1280 640" width="1280" height="640"><style>.a{fill:#fff}</style><path fill-rule="evenodd" class="a" d="m148.5 160.7c27.1-0.3 45.9 28.6 33.3 52.2-12.3 23 1.2 51.2 17.1 61.3 3.5 2.2 7.8 3.9 11.9 4.7 22.2 4 35.7 26.4 27.7 47.6-8.3 22-2.5 40.6 12.3 57.1 13 14.4 32.6 14.3 45.9 0.3 12.2-12.8 18.8-27.8 16.4-45.8-0.5-3.1-1.4-6.2-2.6-9.1-9.3-22.5 4.3-47 28.4-50.2 8.5-1.1 15.4-6.1 20.7-12.9 10.3-13 15.7-27.4 11.3-44.2-0.6-2.3-1.7-4.6-2.9-6.8-8.4-16.6-4.3-35.5 10.2-46.6 14.8-11.2 35.3-10.5 48.6 2.3 10.2 10 13.9 22.5 9.9 36.2-4.1 13.9-13.4 23.7-28 26.3-10.4 1.9-18.9 6.3-25.2 14.5-7.6 9.9-12.9 20.8-12.3 33.5 0.3 5.4 1.6 11 3.9 15.8 10.9 23.4-2.6 48.8-28.2 52.6-7.7 1.1-13.7 5.3-18.8 10.6-13.3 13.9-20.5 30.2-17.9 49.9 0.4 3 1.7 6 2.7 9 5.3 14.9 3.1 28.6-7.5 40.5-10.8 12-24.3 16-40.2 13-22.5-4.3-36.3-27.3-31.1-47.5 1.5-6.1 4.4-12.1 4.6-18.2 1.1-23.4-8.7-41.6-28.3-54.2-2.7-1.7-6.2-2.5-9.4-3-24.1-3.3-39.5-29-28.1-51.3 11.6-22.4-1.2-51.4-20.2-61.8-2.3-1.3-5-2.1-7.5-2.4-20.4-2.4-34.6-18.7-33.9-39 0.7-18.7 16.8-33.8 37.2-34.4zm808.5 236.5c6.5 0 12.5-0.1 18.5 0 5.5 0.1 9.1 3.4 9.2 8.4 0.1 5.1-3.3 8.3-9.1 8.3-34.1 0-68.3 0.2-102.5 0-16.8-0.1-31.8-15.2-32-32.2-0.2-18.8-0.3-37.7 0-56.5 0.2-16.2 15.4-31 31.9-31.1q39.5-0.4 79 0c17.7 0.1 32 14.6 32.3 32.1 0.2 8.7 0.1 17.4 0.1 26-0.1 7.1-3 9.9-10.2 9.9q-55.5 0-111 0c-1.8 0-3.6 0-5.8 0 0 7.4-0.6 14.6 0.2 21.6 0.9 8.5 7.4 13.4 16.4 13.5 27.5 0 55 0 83 0zm-55.5-51.5c22.1 0 44.2 0 66.1 0 0.4-0.8 0.6-1.1 0.7-1.4 0-5.8 0.1-11.6 0-17.4 0-9.3-6.2-16.2-15.3-16.3-27-0.3-54-0.2-80.9 0-7.3 0.1-14.1 6.1-14.7 13.3-0.6 7.1-0.1 14.2-0.1 21.8 14.6 0 28.9 0 44.2 0zm173.5-51.7c22.3 0 44.2 0 66 0 19.4 0 34.3 14.4 34.6 33.8 0.2 17.5 0.3 35-0.1 52.5-0.2 12.3-5.9 22-16.8 28.9 5.7 7.9 11.4 15.6 17 23.4 3.4 4.8 2.7 9.6-1.5 12.1-3.7 2.3-8 1.6-10.6-2-6.2-8.4-12.4-16.9-18.4-25.5-1.7-2.5-3.5-3.4-6.5-3.4-23.8 0.1-47.6 0.1-71.4 0.1-20.1 0.1-34.9-14.3-35.1-34.4-0.1-17.6 0-35.3 0-52.9 0.1-17 15.2-32.2 32.3-32.6 3.3-0.1 6.7 0 10.5 0zm9.5 16.5c-6.5 0-13-0.2-19.5 0-9.6 0.2-16.6 7.4-16.7 16.9 0 17.4-0.1 34.9 0 52.4 0.1 10.8 6.7 17.4 17.6 17.4q37.9 0 75.9 0c11-0.1 17.6-6.7 17.7-17.8q0.1-25.2 0-50.4c-0.1-12.1-6.6-18.5-18.6-18.5-18.4 0-36.9 0-56.4 0zm-655.6 55.5c0-13.2 0-25.8 0-38.5 0.1-18.9 14.6-33.4 33.7-33.5q37.9-0.1 75.9 0c18.9 0.1 33.5 14.8 33.5 33.6 0.1 17.3 0.1 34.6 0.1 52-0.1 19.8-14.6 34.3-34.4 34.3-24.8 0-49.6 0-74.4 0-19 0.1-33.7-13.9-34.3-32.9-0.2-4.8-0.1-9.7-0.1-15zm54.6 31.2c18.3 0 36.6 0 54.9-0.1 11.1 0 17.7-6.7 17.7-17.7 0-16.8 0-33.6 0-50.5 0-11.9-6.4-18.4-18.5-18.5-8.5-0.1-17 0.1-25.5 0.1-16.8 0-33.6-0.1-50.4 0.1-9.3 0.1-16.6 7.1-16.7 15.7q-0.1 27.3 0.1 54.5c0 9.5 6.9 16.2 16.4 16.4 7 0.1 14 0 22 0zm277.5-103.2c9 0 17.5 0 26 0 6 0 10.1 3.7 9.9 8.8-0.2 4.8-3.9 7.6-9.9 7.6q-28 0.1-55.9 0.1c-2.7 0-5.3 0-8.6 0-0.1 2-0.2 3.8-0.2 5.5q0 31.3 0 62.5c0 11.1 7.2 18.5 18.3 18.6 15.5 0.1 31 0.1 46.5 0.1 3.7 0 7.4 0.9 8.5 4.7 0.7 2.5 0.7 6.1-0.5 8.2-1.2 2-4.6 3.6-7 3.7-16.7 0.3-33.3 0.5-50 0-17.6-0.4-31.9-15.7-32-33.9-0.2-38.6-0.1-77.3-0.1-115.9 0.1-6 3.5-9.8 8.5-9.6 4.7 0.2 7.7 3.9 7.8 9.8 0 9.8 0 19.6 0 29.8 12.9 0 25.6 0 38.7 0zm-94.7 108.1c1.8 7.2-1.2 11.4-8.1 11.8-11.6 0.6-22.6-0.3-31.8-8.7-7.5-6.8-11.1-15.5-11.2-25.3-0.3-38.8-0.2-77.6-0.1-116.4 0-5.2 2.4-8.4 6.8-8.9 4.3-0.5 7.6 1.2 9 5.4 0.6 1.7 0.4 3.6 0.4 5.5 0 37.1 0 74.3 0 111.4 0 13.8 6.6 20.1 20.6 20.4 4.2 0 8.4 1.2 12.5 2.1 0.7 0.2 1.1 1.5 1.9 2.7z"/></svg>
