<svg xmlns="http://www.w3.org/2000/svg" viewBox="85.11 127.27 379.33 379.33">
  <style>
    .mark { fill: #000; }
    @media (prefers-color-scheme: dark) {
      .mark { fill: #fff; }
    }
  </style>
  <path class="mark" d="m148.5 160.7c27.1-0.3 45.9 28.6 33.3 52.2-12.3 23 1.2 51.2 17.1 61.3 3.5 2.2 7.8 3.9 11.9 4.7 22.2 4 35.7 26.4 27.7 47.6-8.3 22-2.5 40.6 12.3 57.1 13 14.4 32.6 14.3 45.9 0.3 12.2-12.8 18.8-27.8 16.4-45.8-0.5-3.1-1.4-6.2-2.6-9.1-9.3-22.5 4.3-47 28.4-50.2 8.5-1.1 15.4-6.1 20.7-12.9 10.3-13 15.7-27.4 11.3-44.2-0.6-2.3-1.7-4.6-2.9-6.8-8.4-16.6-4.3-35.5 10.2-46.6 14.8-11.2 35.3-10.5 48.6 2.3 10.2 10 13.9 22.5 9.9 36.2-4.1 13.9-13.4 23.7-28 26.3-10.4 1.9-18.9 6.3-25.2 14.5-7.6 9.9-12.9 20.8-12.3 33.5 0.3 5.4 1.6 11 3.9 15.8 10.9 23.4-2.6 48.8-28.2 52.6-7.7 1.1-13.7 5.3-18.8 10.6-13.3 13.9-20.5 30.2-17.9 49.9 0.4 3 1.7 6 2.7 9 5.3 14.9 3.1 28.6-7.5 40.5-10.8 12-24.3 16-40.2 13-22.5-4.3-36.3-27.3-31.1-47.5 1.5-6.1 4.4-12.1 4.6-18.2 1.1-23.4-8.7-41.6-28.3-54.2-2.7-1.7-6.2-2.5-9.4-3-24.1-3.3-39.5-29-28.1-51.3 11.6-22.4-1.2-51.4-20.2-61.8-2.3-1.3-5-2.1-7.5-2.4-20.4-2.4-34.6-18.7-33.9-39 0.7-18.7 16.8-33.8 37.2-34.4z"/>
</svg>
